Hanif_Deep_5_0_grf.mot
version=1
nRows=21
nColumns=19
inDegrees=yes
endheader
time	right_ground_force_vx	right_ground_force_vy	right_ground_force_vz	right_ground_force_px	right_ground_force_py	right_ground_force_pz	right_ground_torque_x	right_ground_torque_y	right_ground_torque_z	left_ground_force_vx	left_ground_force_vy	left_ground_force_vz	left_ground_force_px	left_ground_force_py	left_ground_force_pz	left_ground_torque_x	left_ground_torque_y	left_ground_torque_z
0.300000	-2.053860	266.190000	53.629600	0.212727	0.000000	-1.430720	-20.040400	-0.535273	3.448710	-2.848160	297.180000	-54.859700	0.220113	0.000000	-0.976032	21.733200	-1.766500	6.545510
0.305000	-1.775570	265.474000	54.167200	0.212794	0.000000	-1.430570	-20.025100	-0.602417	3.442420	-3.042770	295.881000	-54.499900	0.221109	0.000000	-0.976990	21.924400	-1.746350	6.820650
0.310000	-1.593770	269.306000	53.656100	0.212464	0.000000	-1.431440	-20.081400	-0.517513	3.410540	-2.653200	296.614000	-55.091100	0.221163	0.000000	-0.976759	21.905200	-1.681800	6.842550
0.315000	-1.888420	267.419000	53.913400	0.212733	0.000000	-1.429490	-20.462400	-0.575639	3.456600	-3.009200	297.186000	-55.333200	0.221147	0.000000	-0.976588	21.901300	-1.755720	6.870640
0.320000	-1.619330	267.605000	54.007800	0.212313	0.000000	-1.430880	-20.103900	-0.513212	3.350230	-3.020030	295.638000	-55.094700	0.220950	0.000000	-0.977171	21.960000	-1.781760	6.782400
0.325000	-1.106460	268.490000	54.068800	0.212677	0.000000	-1.430420	-20.293300	-0.555032	3.446880	-3.083480	296.974000	-54.840500	0.220424	0.000000	-0.977173	22.059800	-1.760960	6.639540
0.330000	-0.910663	266.944000	54.336800	0.211957	0.000000	-1.430980	-20.026800	-0.535833	3.228930	-3.426390	297.081000	-54.825900	0.220501	0.000000	-0.976864	21.979300	-1.719710	6.661920
0.335000	-1.877610	268.676000	53.752800	0.211744	0.000000	-1.431030	-20.145000	-0.495669	3.210600	-2.552490	295.610000	-55.104300	0.221094	0.000000	-0.977150	21.946000	-1.729630	6.810080
0.340000	-1.862220	268.640000	53.952900	0.212014	0.000000	-1.431720	-19.955400	-0.537293	3.277630	-3.140600	295.661000	-54.917000	0.220716	0.000000	-0.977029	21.919900	-1.688120	6.692860
0.345000	-1.202460	267.007000	54.023300	0.212330	0.000000	-1.430400	-20.185400	-0.587859	3.326440	-2.923370	297.597000	-54.547800	0.221012	0.000000	-0.975871	21.716800	-1.753250	6.823730
0.350000	-1.269530	267.329000	54.162900	0.211984	0.000000	-1.430780	-20.109800	-0.479747	3.257420	-2.968870	293.175000	-54.373600	0.221369	0.000000	-0.977306	21.815800	-1.690330	6.834670
0.355000	-1.720990	267.954000	53.908800	0.212378	0.000000	-1.430850	-20.138900	-0.501973	3.375970	-2.829740	296.206000	-54.923200	0.220775	0.000000	-0.976379	21.764600	-1.706310	6.720110
0.360000	-1.045960	268.823000	54.385100	0.212234	0.000000	-1.431160	-20.118400	-0.516228	3.334900	-3.445090	295.622000	-54.808200	0.220368	0.000000	-0.976421	21.740700	-1.715080	6.593110
0.365000	-1.366790	267.026000	54.051100	0.211983	0.000000	-1.430540	-20.149700	-0.513785	3.247620	-3.731840	296.010000	-54.306300	0.220227	0.000000	-0.975912	21.622100	-1.750010	6.559810
0.370000	-1.774780	268.268000	53.737100	0.212724	0.000000	-1.431260	-20.052500	-0.609543	3.454920	-3.549780	294.885000	-54.307000	0.219607	0.000000	-0.975724	21.482200	-1.756320	6.348790
0.375000	-1.736470	270.221000	54.166500	0.212299	0.000000	-1.430170	-20.493200	-0.498942	3.383470	-3.489900	296.929000	-54.724800	0.219117	0.000000	-0.976172	21.762700	-1.734840	6.236070
0.380000	-1.699470	268.366000	53.655400	0.213085	0.000000	-1.431330	-20.038900	-0.627864	3.551760	-3.581240	296.267000	-54.893100	0.218990	0.000000	-0.976612	21.845300	-1.710930	6.185010
0.385000	-1.641920	268.791000	53.985500	0.213043	0.000000	-1.429250	-20.631400	-0.465945	3.578950	-4.142120	296.338000	-54.907400	0.218644	0.000000	-0.975680	21.579600	-1.662200	6.078240
0.390000	-1.830520	270.444000	53.630400	0.212215	0.000000	-1.431640	-20.113100	-0.519245	3.357430	-4.300980	298.365000	-54.570000	0.217869	0.000000	-0.975104	21.556400	-1.698640	5.877160
0.395000	-1.379500	268.797000	53.531600	0.212543	0.000000	-1.429250	-20.631700	-0.476526	3.431530	-4.183960	301.743000	-55.514500	0.217694	0.000000	-0.974564	21.635300	-1.687460	5.885410
0.400000	-1.375860	270.944000	53.540700	0.212577	0.000000	-1.431520	-20.182200	-0.566568	3.449150	-4.605930	301.016000	-55.548800	0.217033	0.000000	-0.974767	21.647800	-1.642710	5.665930
